Rare Exports (2010)(DivX)(AC3)(Nl subs) TBS
Alternatieve titel: Rare Exports: A Christmas Tale 

Finland / Noorwegen / Frankrijk / Zweden
Komedie / Fantasy
84 minuten

geregisseerd door Jalmari Helander
met Onni Tommila, Jorma Tommila en Ilmari Järvenpää

De jonge Pietari woont bij zijn vader Rauno die een rendierenslachthuis runt. Dichtbij hen in de buurt doet een Amerikaanse wetenschapsexpeditie een grote vondst: ze vinden de Kerstman die er volgens de legende begraven lag. Niet de Kerstman zoals vele hem kennen, maar de kwaadaardige lokale variant. De dag voor Kerst komen Pietari en zijn vrienden langs een veld met dode rendieren. De volwassenen geven een wolf de schuld, maar Pietari en zijn vriend Juuso weten dat er heel iets anders aan de hand is, een duister iets. De volgende dag wordt echter de ontdekking gedaan dat alle kinderen uit het dorp vermist worden.

Storyline

On Christmas Eve in Finland, Santa Claus is unearthed in an archaeological dig. Soon after, children start disappearing, leading a boy and his father to capture Santa and, with the help of fellow hunters, they look to sell him back to the corporation that sponsored the dig. And then there's Santa's elves, who are determined to free their leader... 


General
Complete name                    : Rare Exports (2010)  ext.avi
Format                           : DivX
Format/Info                      : Hack of AVI
File size                        : 1.46 GiB
Duration                         : 1h 19mn
Overall bit rate                 : 2 636 Kbps

Video
ID                               : 0
Format                           : MPEG-4 Visual
Format profile                   : Advanced Simple@L5
Format settings, BVOP            : Yes
Format settings, QPel            : No
Format settings, GMC             : No warppoints
Format settings, Matrix          : Default (H.263)
Muxing mode                      : Packed bitstream
Codec ID                         : DX50
Codec ID/Hint                    : DivX 5
Duration                         : 1h 19mn
Bit rate                         : 2 242 Kbps
Width                            : 720 pixels
Height                           : 320 pixels
Display aspect ratio             : 2.25:1
Frame rate                       : 25.000 fps
Color space                      : YUV
Chroma subsampling               : 4:2:0
Bit depth                        : 8 bits
Scan type                        : Progressive
Bits/(Pixel*Frame)               : 0.389
Stream size                      : 1.24 GiB (85%)
Title                            : Video 
Writing library                  : XviD 1.2.1 (UTC 2008-12-04)

Audio
ID                               : 1
Format                           : AC-3
Format/Info                      : Audio Coding 3
Mode extension                   : CM (complete main)
Codec ID                         : 2000
Duration                         : 1h 19mn
Bit rate mode                    : Constant
Bit rate                         : 384 Kbps
Channel(s)                       : 6 channels
Channel positions                : Front: L C R, Side: L R, LFE
Sampling rate                    : 48.0 KHz
Bit depth                        : 16 bits
Stream size                      : 217 MiB (15%)
Alignment                        : Split accross interleaves
Interleave, duration             : 40 ms (1.00 video frame)
Interleave, preload duration     : 500 ms
Title                            : Audio 

  
Source........: DVD5 Rental
Formaat.......: DivX
Bron..........: Retail
Size..........: 1.36 GB
Subs..........: Dutch Retail srt (EXTERN)
audio.........: AC3
audio.........: Finnish
Cover.........: Yes
thanks........: Hannes3
 
http://www.moviemeter.nl/film/69235  
http://www.imdb.com/title/tt1401143